<?xml version="1.0" encoding="utf-8"?>
<!-- Generator: Adobe Illustrator 22.0.1, SVG Export Plug-In . SVG Version: 6.00 Build 0)  -->
<svg version="1.1" id="Слой_1" xmlns="http://www.w3.org/2000/svg" xmlns:xlink="http://www.w3.org/1999/xlink" x="0px" y="0px"
	 viewBox="0 0 16 18" style="enable-background:new 0 0 16 18;" xml:space="preserve">
<path style="fill:#FFFFFF;" d="M14.2,0.6H4.6c-0.7,0-1.2,0.5-1.2,1.2V3H1.8C1.1,3,0.6,3.5,0.6,4.2v12c0,0.7,0.5,1.2,1.2,1.2h9.7
	c0.7,0,1.2-0.5,1.2-1.2V15h1.6c0.7,0,1.2-0.5,1.2-1.2v-12C15.4,1.1,14.9,0.6,14.2,0.6z M11.6,16.2c0,0.1-0.1,0.2-0.2,0.2H1.8
	c-0.1,0-0.2-0.1-0.2-0.2v-12C1.6,4.1,1.7,4,1.8,4h1.6h8c0.1,0,0.2,0.1,0.2,0.2V15V16.2z M14.4,13.8c0,0.1-0.1,0.2-0.2,0.2h-1.6V4.2
	c0-0.7-0.5-1.2-1.2-1.2h-7V1.8c0-0.1,0.1-0.2,0.2-0.2h9.7c0.1,0,0.2,0.1,0.2,0.2V13.8z"/>
<g>
	<g>
		<path style="fill:#FFFFFF;" d="M8.1,7.7C7.7,7.7,7.4,7.8,7.1,8C6.9,8.2,6.7,8.4,6.6,8.6C6.5,8.4,6.3,8.2,6,8
			C5.8,7.8,5.5,7.7,5.1,7.7c-1,0-1.7,0.7-1.7,1.6c0,1,0.9,1.7,2.3,2.7c0.2,0.2,0.5,0.4,0.8,0.6c0,0,0.1,0,0.1,0s0.1,0,0.1,0
			C7,12.4,7.3,12.2,7.5,12c1.4-1,2.3-1.7,2.3-2.7C9.7,8.4,9,7.7,8.1,7.7z"/>
	</g>
</g>
</svg>
