<?xml version="1.0" encoding="utf-8"?>
<!-- Generator: Adobe Illustrator 22.0.1, SVG Export Plug-In . SVG Version: 6.00 Build 0)  -->
<svg version="1.1" id="Слой_1" xmlns="http://www.w3.org/2000/svg" xmlns:xlink="http://www.w3.org/1999/xlink" x="0px" y="0px"
	 viewBox="0 0 26.5 18.2" style="enable-background:new 0 0 26.5 18.2; transform: scale(1.25)" xml:space="preserve">
<g>
	<polygon style="fill:#FFFFFF;" points="12.8,18.2 12.8,18.2 16.3,18.2 16.3,7.2 12.8,8.7 	"/>
	<polygon style="fill:#FFFFFF;" points="7.5,18.2 11,18.2 11,9.5 7.5,11 	"/>
	<polygon style="fill:#FFFFFF;" points="2.3,18.2 5.7,18.2 5.7,11.8 2.3,13.4 	"/>

		<rect x="-0.7" y="6.7" transform="matrix(0.9146 -0.4044 0.4044 0.9146 -2.0453 5.2677)" style="fill:#FFFFFF;" width="24.3" height="1.6"/>
	<polygon style="fill:#FFFFFF;" points="18,18.2 21.5,18.2 21.5,4.9 18,6.4 	"/>
	<polygon style="fill:#FFFFFF;" points="26.5,0.8 21.4,0 22.2,1.8 22.2,1.8 22.9,3.3 22.9,3.3 23.7,5.1 	"/>
</g>
</svg>
