<?xml version="1.0" encoding="utf-8"?>
<!-- Generator: Adobe Illustrator 22.0.1, SVG Export Plug-In . SVG Version: 6.00 Build 0)  -->
<svg version="1.1" id="Слой_1" xmlns="http://www.w3.org/2000/svg" xmlns:xlink="http://www.w3.org/1999/xlink" x="0px" y="0px"
	 viewBox="0 0 18 18" style="enable-background:new 0 0 18 18;" xml:space="preserve">
<g>
	<path style="fill:#FFFFFF;" d="M11.5,18h-5C3,18,0,15,0,11.5v-5C0,3,3,0,6.5,0h5C15,0,18,3,18,6.5v5C18,15,15,18,11.5,18z M6.5,2
		C4.1,2,2,4.1,2,6.5v5C2,13.9,4.1,16,6.5,16h5c2.4,0,4.5-2.1,4.5-4.5v-5C16,4.1,13.9,2,11.5,2H6.5z"/>
</g>
<g>
	<circle style="fill:#FFFFFF;" cx="9" cy="9" r="1.5"/>
</g>
<g>
	<circle style="fill:#FFFFFF;" cx="12.4" cy="5.5" r="1.5"/>
</g>
<g>
	<circle style="fill:#FFFFFF;" cx="5.4" cy="12.5" r="1.5"/>
</g>
</svg>
