<?xml version="1.0" encoding="utf-8"?>
<!-- Generator: Adobe Illustrator 22.0.1, SVG Export Plug-In . SVG Version: 6.00 Build 0)  -->
<svg version="1.1" id="Слой_1" xmlns="http://www.w3.org/2000/svg" xmlns:xlink="http://www.w3.org/1999/xlink" x="0px" y="0px"
	 viewBox="0 0 18.9 18.2" style="enable-background:new 0 0 18.9 18.2;" xml:space="preserve">
<path id="ico" style="fill:#FFFFFF;" d="M8.8,15.8c-3.8,0-6.9-3.1-7-6.9c0-3.8,3.1-6.9,6.9-7c3.8,0,6.9,3.1,7,6.9
	c0,1.4-0.4,2.8-1.2,3.9l1.4,1.3c2.8-3.9,1.9-9.4-2-12.2C10-0.9,4.5-0.1,1.7,3.9s-1.9,9.4,2,12.2c3.4,2.4,8,2.2,11-0.7l-1.5-1.2
	C12,15.2,10.4,15.8,8.8,15.8z M13.1,11.4C14.5,9,13.7,6,11.3,4.6C8.9,3.2,5.9,4,4.5,6.4C3.2,8.8,4,11.8,6.3,13.2
	c1.7,1,3.8,0.9,5.4-0.3L10,11.4c-0.4,0.2-0.7,0.2-1.1,0.2C7.3,11.7,6,10.4,6,8.9C6,7.3,7.3,6,8.8,6c1.6,0,2.8,1.2,2.8,2.8
	c0,0.3-0.1,0.7-0.2,1L13.1,11.4z M18.9,16.3l-1.6-1.5c-0.1-0.1-0.1-0.1-0.2-0.1l-1.3,0.2l-0.1-0.1l-5-4.9l0,0c0,0,0-0.1,0-0.1
	c0,0,0,0,0,0l0,0c0,0-0.1,0-0.1,0c0,0,0,0,0,0l0,0c-0.2-0.1-0.4-0.1-0.6,0L8.8,8.9c0,0,0,0,0,0v0l0,0c0,0,0,0,0,0L9.8,10
	c-0.1,0.2-0.1,0.4,0.1,0.6l0,0c0,0,0,0.1,0,0.1c0,0,0,0,0,0l0,0c0,0,0.1,0,0.1,0c0,0,0,0,0,0l0,0l5.4,4.5l0.2,0.2l-0.1-0.1l0,1.3
	c0,0.1,0,0.2,0.1,0.3l1.7,1.4c0,0,0.1,0,0.1,0c0,0,0,0,0,0l0-1.3l0.6,0.5c0,0,0.1,0,0.1,0c0,0,0,0,0.1,0c0,0,0,0,0,0l0,0
	c0,0,0,0,0,0l0,0l0,0h0c0,0,0,0,0,0c0,0,0,0,0,0l0,0v-0.1c0,0,0-0.1,0-0.1l-0.4-0.4l-0.2-0.2L18.9,16.3
	C18.9,16.4,18.9,16.3,18.9,16.3C18.9,16.3,18.9,16.3,18.9,16.3z"/>
</svg>
