<?xml version="1.0" encoding="utf-8"?>
<!-- Generator: Adobe Illustrator 22.0.1, SVG Export Plug-In . SVG Version: 6.00 Build 0)  -->
<svg version="1.1" id="Слой_1" xmlns="http://www.w3.org/2000/svg" xmlns:xlink="http://www.w3.org/1999/xlink" x="0px" y="0px"
	 viewBox="0 0 24 24" style="enable-background:new 0 0 16 16;" xml:space="preserve">
<path id="ico" style="fill:#FFFFFF;" d="M18.6,9.6c-1.5,0-2.9,0.6-3.9,1.6c-0.1,0.2-0.4,0.4-0.7,0.4c-0.4,0-0.7-0.3-0.7-0.7
	c0-0.3,0.3-0.6,0.6-0.7c2.1-0.7,3.5-2.7,3.5-5c0.1-3-2.3-5.5-5.3-5.5S6.6,2.1,6.6,5.1c0,2.4,1.5,4.6,3.8,5.3
	c0.3,0.1,0.4,0.4,0.4,0.7c0,0.4-0.3,0.7-0.7,0.7c-0.2,0-0.4-0.1-0.5-0.2c-1-1.2-2.6-1.9-4.2-1.9c-2.9,0-5.3,2.4-5.3,5.3
	s2.4,5.3,5.3,5.3c1.9,0.1,3.8-1,4.7-2.7c0.8-1.3,1.2-0.2,0.9,1.7c-0.2,1.2-0.4,1-2,4.8h6c-1.6-3.7-2-3.5-2.2-4.9
	c-0.2-1.6,0.2-3,1.1-1.6c1,1.7,2.8,2.7,4.7,2.7c2.9,0,5.3-2.4,5.3-5.3C23.9,12,21.5,9.6,18.6,9.6C18.6,9.6,18.6,9.6,18.6,9.6z"/>
</svg>
