<?xml version="1.0" encoding="utf-8"?>
<!-- Generator: Adobe Illustrator 22.0.1, SVG Export Plug-In . SVG Version: 6.00 Build 0)  -->
<svg version="1.1" id="Слой_1" xmlns="http://www.w3.org/2000/svg" xmlns:xlink="http://www.w3.org/1999/xlink" x="0px" y="0px"
	 viewBox="0 0 18.2 18.2" style="enable-background:new 0 0 18.2 18.2;" xml:space="preserve">
<path id="ico" style="fill:#FFFFFF;" d="M13.3,3.2C13.3,3.2,13.3,3.2,13.3,3.2L13.3,3.2l0-0.1l0,0l0,0c0,0,0,0,0,0c0,0,0,0,0,0
	c0,0,0-0.1-0.1-0.1l0,0c-0.2-0.3-0.7-0.5-1-0.2C12,2.7,11.9,2.8,11.8,3c0,0,0,0,0,0c-0.1,0.4,0.1,0.8,0.5,0.9s0.8-0.1,0.9-0.5l0,0
	c0,0,0,0,0-0.1v0C13.3,3.4,13.3,3.3,13.3,3.2L13.3,3.2C13.3,3.3,13.3,3.3,13.3,3.2L13.3,3.2L13.3,3.2z M11.4,10.9
	c-0.1,0-0.1,0-0.2,0l-0.1-0.1L9.8,9.5l0,0c0.1-0.2,0.1-0.5,0-0.8c0,0,0,0,0,0l0,0l1.3-1.3l0,0c0.3,0,0.6-0.2,0.6-0.4
	c0-0.1,0-0.3-0.1-0.4c0,0,0,0,0-0.1c-0.2-0.2-0.6-0.2-0.8,0c0,0,0,0,0,0c0,0-0.1,0.1-0.1,0.1c-0.1,0.1-0.1,0.2-0.1,0.4l0,0L9.4,8.2
	l0,0c-0.3-0.1-0.6-0.1-0.8,0l0,0L7.2,6.9l0,0c0-0.1,0-0.3-0.1-0.4c0,0,0,0-0.1-0.1c-0.2-0.2-0.6-0.2-0.8,0S6,7,6.3,7.2
	c0.1,0.1,0.3,0.2,0.5,0.1l0,0l1.3,1.3l0,0C8,8.9,8,9.2,8.1,9.5l0,0l-1.3,1.3l0,0h0c-0.3,0-0.6,0.2-0.6,0.5c0,0.1,0,0.1,0,0.2
	c0,0.1,0.1,0.1,0.1,0.2C6.5,12,6.8,12,7,11.8c0.1-0.1,0.2-0.3,0.1-0.5l0,0L8.5,10l0,0c0.3,0.1,0.6,0.1,0.8,0l0,0l1.3,1.3l0.1,0.1
	c0,0,0,0.1,0,0.1c0,0,0,0.1,0,0.1c0.1,0.3,0.4,0.5,0.7,0.4c0.2,0,0.3-0.1,0.4-0.3c0.1-0.1,0.1-0.3,0-0.5
	C11.7,11,11.6,10.9,11.4,10.9z M9.1,0C4.1,0,0,4.1,0,9.1c0,5,4.1,9.1,9.1,9.1c5,0,9.1-4.1,9.1-9.1c0,0,0,0,0,0
	C18.2,4.1,14.1,0,9.1,0L9.1,0z M17.6,9.1c0,0.7-0.1,1.4-0.3,2.1L14,10.3c0.1-0.4,0.1-0.8,0.1-1.2c0-0.4,0-0.8-0.1-1.2L17.3,7
	C17.5,7.7,17.6,8.4,17.6,9.1L17.6,9.1z M0.6,9.1c0-0.7,0.1-1.4,0.3-2.1l3.3,0.9C4,8.7,4,9.5,4.2,10.3l-3.3,0.9
	C0.7,10.5,0.6,9.8,0.6,9.1L0.6,9.1z M13.1,8C13.1,8,13.1,8,13.1,8c0,0.1,0,0.1,0,0.2c0.2,0.6,0.2,1.3,0,2c0,0,0,0.1,0,0.1
	c0,0,0,0,0,0c-0.1,0.2-0.1,0.4-0.2,0.6l0,0c-0.1,0.1-0.1,0.3-0.2,0.4l0,0c-0.5,0.9-1.4,1.6-2.4,1.9c-0.1,0-0.2,0-0.3,0.1l0,0l-0.1,0
	l-0.1,0l-0.1,0c-0.1,0-0.1,0-0.2,0l-0.1,0l-0.1,0H9.3c-0.1,0-0.1,0-0.2,0s-0.1,0-0.2,0H8.8l-0.1,0l-0.1,0l-0.2,0l-0.1,0l-0.1,0
	l-0.1,0l0,0c-0.1,0-0.2,0-0.3-0.1c-0.6-0.2-1.2-0.5-1.7-1c-0.1-0.1-0.3-0.3-0.4-0.4l0,0c-0.1-0.2-0.2-0.3-0.3-0.5l0,0
	c-0.1-0.1-0.1-0.3-0.2-0.4l0,0c0,0,0-0.1-0.1-0.1l0,0c-0.1-0.1-0.1-0.3-0.1-0.4c0,0,0,0,0,0c0,0,0-0.1,0-0.1c-0.2-0.6-0.2-1.3,0-2
	c0,0,0-0.1,0-0.1c0,0,0,0,0,0c0-0.1,0.1-0.3,0.1-0.4l0,0c0,0,0-0.1,0.1-0.1l0,0C5.3,7.3,5.4,7.1,5.5,7l0,0c0.1-0.2,0.2-0.3,0.3-0.5
	l0,0c0.1-0.2,0.3-0.3,0.4-0.4c0.5-0.5,1.1-0.8,1.7-1C8,5,8.1,5,8.1,5l0,0l0.1,0l0.1,0l0.1,0c0.1,0,0.1,0,0.2,0l0.1,0l0.1,0h0.1
	c0.1,0,0.1,0,0.2,0s0.1,0,0.2,0h0.1l0.1,0l0.1,0c0.1,0,0.1,0,0.2,0l0.1,0l0.1,0L10,5l0,0c0.1,0,0.2,0,0.3,0.1
	c0.8,0.2,1.6,0.7,2.1,1.4l0,0c0.1,0.2,0.2,0.3,0.3,0.5l0,0c0.1,0.1,0.1,0.3,0.2,0.4l0,0c0,0,0,0.1,0.1,0.1l0,0
	C13,7.7,13.1,7.8,13.1,8L13.1,8z M12.6,5.4c-0.6-0.6-1.3-1-2.1-1.2l0.9-3.3C12.8,1.3,14,2,15,3L12.6,5.4z M7.7,4.2
	C6.9,4.4,6.2,4.9,5.6,5.4L3.2,3c1-1,2.3-1.7,3.6-2.1L7.7,4.2z M5.6,12.8c0.6,0.6,1.3,1,2.1,1.2l-0.9,3.3c-1.4-0.4-2.6-1.1-3.6-2.1
	L5.6,12.8z M10.5,14c0.8-0.2,1.5-0.6,2.1-1.2l2.4,2.4c-1,1-2.3,1.7-3.6,2.1L10.5,14z"/>
</svg>
