<?xml version="1.0" encoding="utf-8"?>
<!-- Generator: Adobe Illustrator 22.0.1, SVG Export Plug-In . SVG Version: 6.00 Build 0)  -->
<svg version="1.1" id="Слой_1" xmlns="http://www.w3.org/2000/svg" xmlns:xlink="http://www.w3.org/1999/xlink" x="0px" y="0px"
	 viewBox="0 0 21.2 18.2" style="enable-background:new 0 0 21.2 18.2;" xml:space="preserve">
<path id="ico" style="fill:#FFFFFF;" d="M19,6.3c-0.2,0-0.3,0-0.5-0.1L17,13.4H4.2L2.7,6.3c-0.2,0-0.3,0.1-0.5,0.1
	c-0.9,0-1.6-0.8-1.5-1.7c0-0.9,0.8-1.6,1.7-1.5c0.9,0,1.5,0.8,1.5,1.6c0,0.6-0.3,1.1-0.9,1.4L6.6,9l3.6-4.7C9.3,4.1,8.7,3.4,8.7,2.4
	c0-1.1,0.9-2,2.1-2c1,0,1.9,0.9,2,2c0,0.9-0.7,1.7-1.5,1.9l3.6,4.5L18.3,6c-0.5-0.3-0.9-0.9-0.9-1.4c0-0.9,0.7-1.7,1.6-1.7
	c0.9,0,1.7,0.7,1.7,1.6S20,6.3,19,6.3C19.1,6.3,19.1,6.3,19,6.3z M10.6,14.9h6.4l0.9,2.8H3.3l0.9-2.8C4.2,14.9,10.6,14.9,10.6,14.9z
	"/>
</svg>
