<?xml version="1.0" encoding="utf-8"?>
<svg version="1.1" id="csgo-icon123123" xmlns="http://www.w3.org/2000/svg" xmlns:xlink="http://www.w3.org/1999/xlink" x="0px" y="0px"
	 viewBox="0 0 193 251" style="enable-background:new 0 0 193 251;" xml:space="preserve">
<style type="text/css">
	.csgo-icon123123{fill:#FFFFFF;}
</style>
<path class="csgo-icon123123" d="M74.3,1.6c4-1.4,8.4-0.2,12,1.6c2.6,1.6,5.1,3.3,8,4.4C94.6,8,95,8.8,95.2,9.2c-0.1,0.3-0.3,0.8-0.4,1.1
	c2,4.6,3.3,10.1,1.4,15c-1.3,1.6-3.7,1.9-5.6,2.5c0,2.4,0.4,4.7,0.6,7c4.1,0.7,7.5-2.2,11.5-1.9c0.5-2.2,1-4.5,1.7-6.7
	c0.8,1.5,0.9,3.1,0.9,4.8c1.1,0.3,2.1,0.6,3.2,0.8c0,0.4,0,1.2,0,1.6c17.6,0.1,35.2-0.1,52.9,0.1c0,0.6-0.1,1.8-0.2,2.4
	c0.5,0,1.4,0,1.8,0c0-3.2,0-6.4,0-9.6c0.4,0,1.3,0,1.8-0.1c0,2.5,0,5,0,7.6c0.4,0.5,1.2,1.4,1.5,1.9c0.3-0.3,0.9-1,1.2-1.4
	c1.3,1.3,0.6,3,0.5,4.5c4.9-0.1,9.9,0.3,14.8-0.1c0.4-0.3,1.1-0.8,1.5-1.1c0.7,0.3,1.4,0.5,2,0.8c2.2-0.1,4.4-0.1,6.7-0.1
	c0,1.1-0.1,2.3-0.1,3.4c-2.9,0-5.7-0.1-8.6,0.4c-1.8-1.6-4.3-1.1-6.5-1.1c-3.4,0.2-6.9-0.4-10.1,0.6c-1.9,0.5-4.1,0.4-5.8-0.7
	c-0.4,1,0.2,3.3-1.5,3.2c-6.8,0.1-13.6-0.1-20.4,0c-0.9,0.5-1.9,1-2.8,1.4c-1,2.9-3.8,4.9-6.2,6.7c-0.3,4.5,1.5,8.7,2.2,13
	c-1.3,0.4-2.7,0.8-4,1.2c-1.9,4.5-0.7,10.6-5.1,13.7c-3.4,2-5.6,6.2-10.2,5.5c2.3,1.9-0.6,1.3-0.3-0.2c-8.2-0.7-15.2-5.5-22.3-9.2
	c-0.3,2-0.9,4-1.4,6c2.7,0.5,5,2.5,5.4,5.3c0.9,6.1-0.9,12.1-0.8,18.2c0.2,3.6-1.3,6.8-3.2,9.8c-1.7,1.9-4.3-0.1-6.3-0.3
	c-0.5,0.9-0.9,1.8-1.3,2.7c0.6,2.4,0.8,4.9,1.6,7.2c4.5,4.9,8.5,10.3,11.7,16.2c3.2,6.7,6.1,13.5,8.6,20.5c0.2,1.4,1.5,1.8,2.6,2.3
	c0.1,1.4,0.3,2.8,0.4,4.2c0.4,0.6,0.9,1.3,1.3,1.9c0.3,8.6-0.8,17.2-2.1,25.7c-0.8,3.8,1.4,7.6,0.5,11.5c0.1,2-1.3,3.5-1.9,5.2
	c-0.1,4.1-0.3,8.2,0.1,12.3c0.3,3,2.8,4.9,4.6,7.1c1.9,2,3.4,4.7,6.3,5.4c2.7,0.8,5.2,2,7.6,3.5c0.7,1.8,0.6,3.7,0.2,5.5
	c-5.1,0.9-10.4,0.5-15.6,0.6c-4,0.2-7.6-1.9-11.4-2.4c-3.8-0.1-8.3,1.8-11.2-1.6c1.2-4.7,1.3-9.7,3.6-14c0.7-4.9-0.6-9.9-0.4-14.9
	c-0.4-0.4-1.3-1.1-1.7-1.4c0.3-3.2-1.3-6.1-1.8-9.2c-0.3-4.5-0.8-9.1-1.3-13.6c-0.4-2.2,0.7-4.2,2.3-5.7c0.1-2.5,0.5-5,0.7-7.6
	c-0.4-1.6-1.7-2.9-2.5-4.3c-2.8,1.2-6.6,0.6-8.3-2.1c-4-5.9-7.9-11.8-11.9-17.7c-1.6-0.1-3.2,0.1-4.7-0.6c-1.7-1.7-2.6-4.1-3.7-6.2
	c-1.6,1.7-1.4,4.4-3.3,6c-3.9,3.7-4.9,9.2-7,14c-1.6,3.1-0.7,6.8-2.4,9.9c-0.9,1.6-3.3,2-3.9,3.8c-0.8,2-1.8,4.1-3.6,5.3
	c-2,1.3-2.6,3.9-3.5,6c-0.8,1.9,0.4,4,0.1,6c-1.3,6.3-5.3,11.6-7,17.8c-0.8,2.8-1.9,5.9-5.1,6.5c-3.7,6.6-5.7,14.6-3.6,22
	c1.3,2.3,1.2,4.9,0.8,7.5c-5.9,0.5-11.9,1.2-17.6-0.4c-1.3-2.7-1.2-5.8-0.9-8.7c1.8-7.6,4.1-15,5.6-22.7c-1.8-1.6-1.4-4-1.3-6.2
	c-0.1-4,2.7-7.2,4.6-10.5c0.7-3.4,0.4-7,2.1-10.1c2.1-3.9,3.8-8,6.9-11.2c0.6-2.8,2.6-4.8,3.5-7.5c0.9-2.3-0.7-4.7-0.3-7.1
	c0.8-7.3,2.1-14.5,3.2-21.7c-2.2-1.8-1.5-4.7-2.2-7.1c0.3-1,0.8-1.9,1.3-2.8c-0.5-0.5-1.1-1-1.6-1.5c0.5-2.6,0.4-7.2,4.3-6.3
	c0.2-8.5-2.7-16.7-1.7-25.2c0.5,0.6,1,1.2,1.6,1.9l-0.3-2.9c1.6-0.9,3.4-1.5,5.2-1.9c-3-0.4-5.9-1.2-8.8-1.8
	c-0.7-1.9-0.3-3.8-0.1-5.8c1.1-6.4,1.6-13,1.8-19.5c3.3-1.2,7-0.2,10.2-1.7c-1-8.2-1.3-16.7,1.6-24.5c2.3-6.7,6.8-13.1,13.8-15.4
	c3.3-0.8,7.4-1.7,9.8,1.5c0.6-0.6,1.3-1.2,1.9-1.8C55.9,19.2,62.3,3.8,74.3,1.6 M116.9,47.4c-1.4,0.9-2.8,1.8-1.3,3.4
	c-0.7,0.4-1.4,0.8-2.2,1.2c-1.1,0.9-3.7,1.4-3.4,3.1c1.3,2.1,2.4,4.2,3.3,6.4c2.8-2.3,5-5.4,6.5-8.6c0.3-0.3,1-1,1.3-1.3
	c-0.1-1.5-0.5-3-1.1-4.3C119,47.4,117.9,47.4,116.9,47.4L116.9,47.4z"/>
</svg>
